<svg xmlns="http://www.w3.org/2000/svg" xmlns:xlink="http://www.w3.org/1999/xlink" width="18" height="20" viewBox="0 0 18 20"><defs><path id="b" d="M488.1 2094.19a.38.38 0 0 1-.1-.28v-1.55c0-.11.04-.2.1-.27a.37.37 0 0 1 .28-.11H491v-1.43h-2.62a.36.36 0 0 1-.27-.1.38.38 0 0 1-.11-.28v-1.8c0-.1.04-.2.1-.28a.35.35 0 0 1 .28-.11H491v-7.6c0-.1.04-.2.1-.27a.41.41 0 0 1 .28-.11h6.31c1.56 0 2.84.5 3.83 1.47a5.13 5.13 0 0 1 1.48 3.8c0 1.56-.5 2.83-1.48 3.8a5.2 5.2 0 0 1-3.83 1.48h-3.98v1.43h5.92c.1 0 .2.03.26.1.08.08.11.17.11.28v1.55c0 .11-.03.2-.1.28a.36.36 0 0 1-.27.1h-5.92v2.32c0 .12-.04.2-.11.28a.36.36 0 0 1-.27.11h-1.95c-.11 0-.2-.04-.27-.1a.38.38 0 0 1-.11-.29v-2.32h-2.62a.36.36 0 0 1-.27-.1zm5.6-6.2h3.76c.82 0 1.5-.26 2-.76s.76-1.15.76-1.95-.25-1.46-.76-1.96c-.5-.5-1.18-.75-2-.75h-3.75z"/><linearGradient id="a" x1="495" x2="496" y1="2097" y2="2080" gradientUnits="userSpaceOnUse"><stop offset="0" stop-color="#fc4f13"/><stop offset="1" stop-color="#fc9113"/></linearGradient></defs><use fill="url(#a)" xlink:href="#b" transform="translate(-486 -2078)"/></svg>